<svg xmlns="http://www.w3.org/2000/svg" width="1920" height="2604" viewBox="0 0 1920 2604">
    <g transform="scale(1.001 1.001)">
        <path d="M11332.689-1385c4.066,2.918,7.961,6.417,11.777,9.6,97.82,81.6,97.82,244.787,97.82,244.787s0,163.192,97.821,244.787,293.466,81.6,293.466,81.6,195.648,0,293.468,81.6,97.822,244.787,97.822,244.787,0,163.191,97.823,244.787,293.468,81.6,293.468,81.6,195.641,0,293.465,81.6,97.822,244.787,97.822,244.787.705,59.28,23.247,124.082" transform="translate(-11110.689 1385.004)" fill="none" stroke="#916aff" stroke-linecap="square" stroke-width="5"/>
        <path d="M11473.189-980c14.481,34.712,35.714,68.14,66.919,94.17,97.823,81.6,293.466,81.6,293.466,81.6s195.648,0,293.468,81.6,97.822,244.787,97.822,244.787,0,163.191,97.823,244.787,293.468,81.6,293.468,81.6,195.641,0,293.465,81.6,97.822,244.787,97.822,244.787.665,97.522,48.247,179.086" transform="translate(-11135.689 980)" fill="none" stroke="#916aff" stroke-linecap="square" stroke-width="5"/>
        <path d="M11336-1382c2.861,2.14,5.727,4.31,8.467,6.6,97.82,81.6,97.82,244.787,97.82,244.787s0,163.192,97.821,244.787,293.466,81.6,293.466,81.6,195.648,0,293.468,81.6,97.822,244.787,97.822,244.787.053,104.3,50.136,187.852" transform="translate(-10355 1382)" fill="none" stroke="#916aff" stroke-linecap="square" stroke-width="5"/>
        <path d="M11410-1283c32.069,74.823,32.287,152.383,32.287,152.383s0,163.192,97.821,244.787,293.466,81.6,293.466,81.6A747.893,747.893,0,0,1,11951-793" transform="translate(-10031 1283)" fill="none" stroke="#916aff" stroke-linecap="square" stroke-width="5"/>
        <path d="M11518-907a196.74,196.74,0,0,0,22.108,21.17c97.823,81.6,293.466,81.6,293.466,81.6S11871.032-804,11922-797" transform="translate(-10002 907)" fill="none" stroke="#916aff" stroke-linecap="square" stroke-width="5"/>
        <path d="M11165-1446c60.056,10.376,131.632,30.695,179.467,70.6,97.82,81.6,97.82,244.787,97.82,244.787s0,163.192,97.821,244.787,293.466,81.6,293.466,81.6,195.648,0,293.468,81.6,97.822,244.787,97.822,244.787,0,163.191,97.823,244.787,293.468,81.6,293.468,81.6,195.641,0,293.465,81.6,97.822,244.787,97.822,244.787S13006.971,311.05,13085,396" transform="translate(-11165 1840)" fill="none" stroke="#916aff" stroke-linecap="square" stroke-width="5"/>
        <path d="M11528-897c3.958,3.909,7.8,7.579,12.108,11.17,97.823,81.6,293.466,81.6,293.466,81.6s195.648,0,293.468,81.6,97.822,244.787,97.822,244.787,0,163.191,97.823,244.787,293.468,81.6,293.468,81.6,195.641,0,293.465,81.6,97.822,244.787,97.822,244.787,0,158.092,97.821,239.687,293.466,86.7,293.466,86.7,19.338.129,49.271,2.7" transform="translate(-11528 1850)" fill="none" stroke="#916aff" stroke-linecap="square" stroke-width="5"/>
        <path d="M11577-861c102.835,56.631,256.574,56.766,256.574,56.766s195.648,0,293.468,81.6,97.822,244.787,97.822,244.787,0,163.191,97.823,244.787,293.468,81.6,293.468,81.6,195.641,0,293.465,81.6,97.822,244.787,97.822,244.787S13001.917,325.783,13093,409" transform="translate(-11577 2195)" fill="none" stroke="#916aff" stroke-linecap="square" stroke-width="5"/>
        <path d="M11601-849c101.077,44.751,232.574,44.766,232.574,44.766s195.648,0,293.468,81.6,97.822,244.787,97.822,244.787,0,163.191,97.823,244.787,293.468,81.6,293.468,81.6,195.641,0,293.465,81.6C12943.76-41.4,12965.48-3.084,12980,35" transform="translate(-11601 2569)" fill="none" stroke="#916aff" stroke-linecap="square" stroke-width="5"/>
        <path d="M11132-1451c65.275,8.288,155.534,28.107,212.467,75.6,97.82,81.6,97.82,244.787,97.82,244.787s0,163.192,97.821,244.787,293.466,81.6,293.466,81.6S12015.181-802.6,12113-721" transform="translate(-11132 3325)" fill="none" stroke="#916aff" stroke-linecap="square" stroke-width="5"/>
        <path d="M11156-1448c62.063,9.9,138.188,30.655,188.47,72.6,97.82,81.6,97.82,244.787,97.82,244.787s4.368,99.969,51.213,182.617" transform="translate(-11156 3552)" fill="none" stroke="#916aff" stroke-linecap="square" stroke-width="5"/>
        <path d="M11134-1451c65.137,8.474,154.5,27.822,210.75,74.74,3.424,2.856,8.031,7.185,11.25,10.26" transform="translate(-11134 3970)" fill="none" stroke="#916aff" stroke-linecap="square" stroke-width="5"/>
    </g>
</svg>
